<svg width="25" height="25" viewBox="0 0 25 25" fill="none" xmlns="http://www.w3.org/2000/svg">
<g id="Setting">
<path id="Vector" fill-rule="evenodd" clip-rule="evenodd" d="M21.6734 7.94123L21.0251 6.81614C20.4766 5.86414 19.261 5.53572 18.3077 6.08197C17.854 6.34928 17.3125 6.42513 16.8027 6.29277C16.2929 6.16041 15.8568 5.83072 15.5903 5.3764C15.419 5.08763 15.3269 4.75871 15.3233 4.42293C15.3388 3.88457 15.1357 3.36289 14.7603 2.97671C14.3849 2.59053 13.8692 2.37274 13.3306 2.37297H12.0244C11.4968 2.37296 10.9908 2.58321 10.6186 2.9572C10.2464 3.3312 10.0386 3.83809 10.0411 4.36572C10.0255 5.4551 9.13787 6.32998 8.04838 6.32987C7.7126 6.32638 7.38368 6.23428 7.09491 6.0629C6.14161 5.51665 4.92603 5.84506 4.37751 6.79707L3.68148 7.94123C3.13363 8.89204 3.45758 10.1069 4.40612 10.6586C5.02269 11.0146 5.40251 11.6725 5.40251 12.3844C5.40251 13.0964 5.02269 13.7542 4.40612 14.1102C3.45878 14.6582 3.13448 15.8701 3.68148 16.818L4.33938 17.9527C4.59638 18.4165 5.02759 18.7586 5.53758 18.9035C6.04757 19.0485 6.59428 18.9843 7.05677 18.725C7.51141 18.4597 8.05319 18.387 8.56168 18.5231C9.07018 18.6592 9.50324 18.9927 9.76463 19.4496C9.93601 19.7384 10.0281 20.0673 10.0316 20.4031C10.0316 21.5036 10.9237 22.3958 12.0244 22.3958H13.3306C14.4275 22.3958 15.3181 21.5095 15.3233 20.4126C15.3208 19.8833 15.53 19.375 15.9042 19.0007C16.2784 18.6265 16.7869 18.4173 17.3161 18.4199C17.6511 18.4289 17.9786 18.5205 18.2696 18.6869C19.2204 19.2347 20.4352 18.9107 20.987 17.9622L21.6734 16.818C21.9392 16.362 22.0122 15.8188 21.8761 15.3086C21.7401 14.7986 21.4063 14.3639 20.9488 14.1006C20.4912 13.8374 20.1576 13.4026 20.0216 12.8926C19.8855 12.3826 19.9584 11.8394 20.2242 11.3832C20.397 11.0816 20.6472 10.8315 20.9488 10.6586C21.8917 10.1071 22.2149 8.89944 21.6734 7.95077V7.94123Z" stroke="#1D1E20" stroke-width="1.5" stroke-linecap="round" stroke-linejoin="round"/>
<path id="Vector_2" d="M12.6823 15.1304C14.1989 15.1304 15.4283 13.9009 15.4283 12.3844C15.4283 10.8678 14.1989 9.63837 12.6823 9.63837C11.1657 9.63837 9.93628 10.8678 9.93628 12.3844C9.93628 13.9009 11.1657 15.1304 12.6823 15.1304Z" stroke="#1D1E20" stroke-width="1.5" stroke-linecap="round" stroke-linejoin="round"/>
</g>
</svg>
